<svg xmlns="http://www.w3.org/2000/svg" xmlns:xlink="http://www.w3.org/1999/xlink" viewBox="0,0,256,256" width="48px" height="48px"><defs><radialGradient cx="24.167" cy="25.33277" r="28.964" gradientUnits="userSpaceOnUse" id="color-1"><stop offset="0" stop-color="#ed6b00"></stop><stop offset="0.451" stop-color="#f28104"></stop><stop offset="0.7" stop-color="#f7931e"></stop><stop offset="0.777" stop-color="#f79b20"></stop><stop offset="0.895" stop-color="#f5b026"></stop><stop offset="1" stop-color="#f4c92c"></stop></radialGradient><radialGradient cx="23.959" cy="23.58355" r="24.459" gradientUnits="userSpaceOnUse" id="color-2"><stop offset="0.419" stop-color="#c04e00"></stop><stop offset="0.539" stop-color="#c55300"></stop><stop offset="0.684" stop-color="#d46100"></stop><stop offset="0.781" stop-color="#e26f00"></stop><stop offset="0.826" stop-color="#ed6b00" stop-opacity="0"></stop><stop offset="1" stop-color="#ed6b00" stop-opacity="0.063"></stop></radialGradient><radialGradient cx="24.042" cy="35.58272" r="11.5" gradientUnits="userSpaceOnUse" id="color-3"><stop offset="0.948" stop-color="#a1451a"></stop><stop offset="0.959" stop-color="#a64818" stop-opacity="0.806"></stop><stop offset="0.972" stop-color="#b54f13" stop-opacity="0.571"></stop><stop offset="0.986" stop-color="#cd5b0b" stop-opacity="0.316"></stop><stop offset="1" stop-color="#ed6b00" stop-opacity="0.063"></stop></radialGradient><radialGradient cx="23.07979" cy="35.86511" r="10.48732" gradientUnits="userSpaceOnUse" id="color-4"><stop offset="0.338" stop-color="#c04e00"></stop><stop offset="0.473" stop-color="#c55300"></stop><stop offset="0.636" stop-color="#d46200"></stop><stop offset="0.813" stop-color="#ec7900"></stop><stop offset="0.842" stop-color="#f17e00"></stop><stop offset="0.967" stop-color="#f17e00" stop-opacity="0"></stop></radialGradient><linearGradient x1="-9.318" y1="13.001" x2="40.192" y2="25.99" gradientUnits="userSpaceOnUse" id="color-5"><stop offset="0.539" stop-color="#c04e00"></stop><stop offset="0.554" stop-color="#d36100"></stop><stop offset="0.575" stop-color="#e97600"></stop><stop offset="0.588" stop-color="#f17e00"></stop><stop offset="0.647" stop-color="#f17e00"></stop><stop offset="0.744" stop-color="#e77400" stop-opacity="0"></stop></linearGradient><linearGradient x1="58.283" y1="12.969" x2="8.69" y2="25.638" gradientUnits="userSpaceOnUse" id="color-6"><stop offset="0.563" stop-color="#a1451a"></stop><stop offset="0.565" stop-color="#a54719"></stop><stop offset="0.581" stop-color="#c25b0e"></stop><stop offset="0.597" stop-color="#d66906"></stop><stop offset="0.613" stop-color="#e37102"></stop><stop offset="0.628" stop-color="#e77400"></stop><stop offset="0.718" stop-color="#ed6b00" stop-opacity="0"></stop><stop offset="1" stop-color="#ed6b00" stop-opacity="0.063"></stop></linearGradient><radialGradient cx="24.01" cy="2.55245" r="2.662" gradientUnits="userSpaceOnUse" id="color-7"><stop offset="0.653" stop-color="#c04e00"></stop><stop offset="0.746" stop-color="#c95700" stop-opacity="0.663"></stop><stop offset="0.896" stop-color="#e16e00" stop-opacity="0.116"></stop><stop offset="0.927" stop-color="#e77400" stop-opacity="0"></stop></radialGradient><linearGradient x1="19.367" y1="22.326" x2="38.477" y2="17.753" gradientUnits="userSpaceOnUse" id="color-8"><stop offset="0" stop-color="#f2f2f2" stop-opacity="0.06"></stop><stop offset="0.42" stop-color="#cccccc"></stop><stop offset="0.454" stop-color="#c4c4c4"></stop><stop offset="0.506" stop-color="#afafaf"></stop><stop offset="0.57" stop-color="#8d8d8d"></stop><stop offset="0.63" stop-color="#666666"></stop></linearGradient><linearGradient x1="6.155" y1="17.11" x2="35.115" y2="23.76" gradientUnits="userSpaceOnUse" id="color-9"><stop offset="0.362" stop-color="#666666"></stop><stop offset="0.42" stop-color="#8d8d8d" stop-opacity="0.712"></stop><stop offset="0.48" stop-color="#afafaf" stop-opacity="0.411"></stop><stop offset="0.53" stop-color="#c4c4c4" stop-opacity="0.163"></stop><stop offset="0.563" stop-color="#cccccc" stop-opacity="0"></stop><stop offset="1" stop-color="#f2f2f2" stop-opacity="0.06"></stop></linearGradient></defs><g fill-opacity="0" fill="#dddddd" fill-rule="nonzero" stroke="none" stroke-width="1" stroke-linecap="butt" stroke-linejoin="miter" stroke-miterlimit="10" stroke-dasharray="" stroke-dashoffset="0" font-family="none" font-weight="none" font-size="none" text-anchor="none" style="mix-blend-mode: normal"><path d="M0,256v-256h256v256z" id="bgRectangle"></path></g><g fill="none" fill-rule="nonzero" stroke="none" stroke-width="1" stroke-linecap="butt" stroke-linejoin="miter" stroke-miterlimit="10" stroke-dasharray="" stroke-dashoffset="0" font-family="none" font-weight="none" font-size="none" text-anchor="none" style="mix-blend-mode: normal"><g transform="scale(5.33333,5.33333)"><path d="M41,45h-34c-0.552,0 -1,-0.448 -1,-1v-2h36v2c0,0.552 -0.448,1 -1,1z" fill="#cf5a00"></path><path d="M36.294,29h-24.588c-0.411,0 -0.781,0.252 -0.931,0.635l-4.705,11.999c-0.257,0.657 0.227,1.366 0.931,1.366h33.999c0.704,0 1.187,-0.708 0.93,-1.363l-4.706,-12.002c-0.15,-0.383 -0.519,-0.635 -0.93,-0.635z" fill="url(#color-1)"></path><path d="M36.294,29h-24.588c-0.411,0 -0.781,0.252 -0.931,0.635l-4.705,11.999c-0.257,0.657 0.227,1.366 0.931,1.366h33.999c0.704,0 1.187,-0.708 0.93,-1.363l-4.706,-12.002c-0.15,-0.383 -0.519,-0.635 -0.93,-0.635z" fill="url(#color-2)"></path><path d="M24,40.5c-6.449,0 -11.5,-2.196 -11.5,-5c0,-2.804 5.051,-5 11.5,-5c6.449,0 11.5,2.196 11.5,5c0,2.804 -5.051,5 -11.5,5z" fill="url(#color-3)"></path><path d="M23.284,40.5c-5.362,0 -10.265,-1.931 -10.265,-4.735c0,-2.804 5.303,-5.265 10.981,-5.265c5.678,0 10.125,2.196 10.125,5c0,2.804 -5.163,5 -10.841,5z" fill="url(#color-4)"></path><path d="M13.625,33c8.166,-29.28 0,0 8.166,-29.28c0.12,-0.429 0.515,-0.72 0.96,-0.72h2.497c0.445,0 0.84,0.291 0.96,0.72c8.166,29.28 0,0 8.166,29.28c0.278,0.993 0.626,2.201 0.626,2.5c0,2.485 -4.925,4.5 -11,4.5c-6.075,0 -11,-2.015 -11,-4.5c0,-0.299 0.348,-1.507 0.625,-2.5z" fill="#ed6b00"></path><path d="M34.375,33c-8.166,-29.28 0,0 -8.166,-29.28c-0.12,-0.429 -0.515,-0.72 -0.96,-0.72h-2.497c-0.445,0 -0.84,0.291 -0.96,0.72c-8.166,29.28 0,0 -8.166,29.28c-0.278,0.993 -0.626,2.201 -0.626,2.5c0,2.485 4.925,4.5 11,4.5c6.075,0 11,-2.015 11,-4.5c0,-0.299 -0.348,-1.507 -0.625,-2.5z" fill="url(#color-5)"></path><path d="M13.625,33c8.166,-29.28 0,0 8.166,-29.28c0.12,-0.429 0.515,-0.72 0.96,-0.72h2.497c0.445,0 0.84,0.291 0.96,0.72c8.166,29.28 0,0 8.166,29.28c0.278,0.993 0.626,2.201 0.626,2.5c0,2.485 -4.925,4.5 -11,4.5c-6.075,0 -11,-2.015 -11,-4.5c0,-0.299 0.348,-1.507 0.625,-2.5z" fill="url(#color-6)"></path><path d="M22.158,3.195c0.303,0.179 1.014,0.305 1.842,0.305c0.828,0 1.539,-0.126 1.842,-0.305c-0.168,-0.123 -0.374,-0.195 -0.593,-0.195h-2.497c-0.22,0 -0.426,0.072 -0.594,0.195z" fill="url(#color-7)"></path><g><path d="M33.821,31c0.097,0.347 -1.821,3 -9.821,3c-8,0 -9.918,-2.653 -9.821,-3c0.849,-3.043 1.488,-5.35 1.981,-7.1c0.04,0.06 0.09,0.13 0.14,0.19c0.38,0.45 2.07,1.91 7.7,1.91c5.63,0 7.32,-1.46 7.7,-1.91c0.05,-0.06 0.1,-0.13 0.14,-0.19c0.494,1.75 1.132,4.057 1.981,7.1zM27.55,8.51c-0.94,0.3 -2.1,0.49 -3.55,0.49c-1.45,0 -2.61,-0.19 -3.55,-0.49c-0.3,1.07 -1.98,7.1 -2.02,7.24v0.01c0,0.19 1.63,1.24 5.57,1.24c3.89,0 5.53,-1.02 5.57,-1.23c0,-0.01 -1.9,-6.82 -2.02,-7.26z" fill="#cccccc"></path><path d="M33.821,31c0.097,0.347 -1.821,3 -9.821,3c-8,0 -9.918,-2.653 -9.821,-3c0.849,-3.043 1.488,-5.35 1.981,-7.1c0.04,0.06 0.09,0.13 0.14,0.19c0.38,0.45 2.07,1.91 7.7,1.91c5.63,0 7.32,-1.46 7.7,-1.91c0.05,-0.06 0.1,-0.13 0.14,-0.19c0.494,1.75 1.132,4.057 1.981,7.1zM27.55,8.51c-0.94,0.3 -2.1,0.49 -3.55,0.49c-1.45,0 -2.61,-0.19 -3.55,-0.49c-0.3,1.07 -1.98,7.1 -2.02,7.24v0.01c0,0.19 1.63,1.24 5.57,1.24c3.89,0 5.53,-1.02 5.57,-1.23c0,-0.01 -1.9,-6.82 -2.02,-7.26z" fill="url(#color-8)"></path><path d="M33.821,31c0.097,0.347 -1.821,3 -9.821,3c-8,0 -9.918,-2.653 -9.821,-3c0.849,-3.043 1.488,-5.35 1.981,-7.1c0.04,0.06 0.09,0.13 0.14,0.19c0.38,0.45 2.07,1.91 7.7,1.91c5.63,0 7.32,-1.46 7.7,-1.91c0.05,-0.06 0.1,-0.13 0.14,-0.19c0.494,1.75 1.132,4.057 1.981,7.1zM27.55,8.51c-0.94,0.3 -2.1,0.49 -3.55,0.49c-1.45,0 -2.61,-0.19 -3.55,-0.49c-0.3,1.07 -1.98,7.1 -2.02,7.24v0.01c0,0.19 1.63,1.24 5.57,1.24c3.89,0 5.53,-1.02 5.57,-1.23c0,-0.01 -1.9,-6.82 -2.02,-7.26z" fill="url(#color-9)"></path></g></g></g></svg>